<svg width="930" height="689" viewBox="0 0 930 689" fill="none" xmlns="http://www.w3.org/2000/svg">
<g clip-path="url(#clip0_23_296)">
<path d="M535.932 33.5338C543.909 50.1946 527.006 54.9138 507.643 63.8438C488.279 72.7737 473.789 82.5329 465.812 65.8721C457.835 49.2113 451.363 16.1427 478.755 3.50966C507.091 -9.55854 527.955 16.873 535.932 33.5338Z" fill="#C38570"/>
<path d="M496.426 66.299C510.822 66.299 522.493 54.845 522.493 40.7158C522.493 26.5867 510.822 15.1327 496.426 15.1327C482.03 15.1327 470.359 26.5867 470.359 40.7158C470.359 54.845 482.03 66.299 496.426 66.299Z" fill="#FFB8B8"/>
<path d="M625.567 154.172C624.664 153.016 623.762 151.88 622.85 150.776C621.672 149.339 620.487 147.946 619.294 146.599C605.784 131.298 591.413 121.663 575.59 120.632H575.568L575.335 120.611L543.803 150.776L533.084 161.026L533.317 161.588L539.101 175.723H640.446C635.88 168.285 630.913 161.091 625.567 154.172V154.172Z" fill="#2F2E41"/>
<path d="M468.08 51.0155L477.411 46.7121L476.111 33.501L482.351 44.434L486.811 42.3772L486.052 34.6707L489.692 41.0482L522.831 25.765C519.719 19.2644 514.103 14.2435 507.218 11.8068C500.334 9.37017 492.745 9.71739 486.121 12.7721L481.319 14.987C474.695 18.0417 469.579 23.5537 467.096 30.3103C464.614 37.067 464.968 44.5149 468.08 51.0155V51.0155Z" fill="#C38570"/>
<path d="M684.045 515.391H139.762C135.119 515.386 130.668 513.574 127.385 510.352C124.102 507.13 122.255 502.761 122.25 498.205V177.227C122.254 173.889 123.607 170.688 126.012 168.328C128.417 165.967 131.678 164.639 135.079 164.636H688.506C691.966 164.639 695.283 165.99 697.73 168.392C700.177 170.793 701.553 174.049 701.557 177.445V498.205C701.551 502.761 699.705 507.13 696.422 510.352C693.139 513.574 688.688 515.386 684.045 515.391Z" fill="#F2F2F2"/>
<path d="M156.743 498.205H667.064C671.568 498.205 675.887 496.449 679.071 493.323C682.256 490.198 684.045 485.959 684.045 481.539V209.107C684.045 204.687 682.256 200.448 679.071 197.322C675.887 194.197 671.568 192.441 667.064 192.441H156.743C152.239 192.441 147.92 194.197 144.736 197.322C141.551 200.448 139.762 204.687 139.762 209.107V481.539C139.762 485.959 141.551 490.198 144.736 493.323C147.92 496.449 152.239 498.205 156.743 498.205Z" fill="white"/>
<path d="M701.313 176.244H122.004V167.494C122.011 162.922 123.865 158.54 127.16 155.308C130.455 152.076 134.922 150.259 139.58 150.255H683.737C688.396 150.259 692.862 152.076 696.157 155.308C699.452 158.54 701.306 162.922 701.313 167.494V176.244Z" fill="#637FB1"/>
<path d="M153.945 167.737C156.456 167.737 158.491 165.74 158.491 163.276C158.491 160.811 156.456 158.814 153.945 158.814C151.434 158.814 149.399 160.811 149.399 163.276C149.399 165.74 151.434 167.737 153.945 167.737Z" fill="white"/>
<path d="M171.201 167.737C173.712 167.737 175.747 165.74 175.747 163.276C175.747 160.811 173.712 158.814 171.201 158.814C168.69 158.814 166.655 160.811 166.655 163.276C166.655 165.74 168.69 167.737 171.201 167.737Z" fill="white"/>
<path d="M188.457 167.737C190.967 167.737 193.003 165.74 193.003 163.276C193.003 160.811 190.967 158.814 188.457 158.814C185.946 158.814 183.91 160.811 183.91 163.276C183.91 165.74 185.946 167.737 188.457 167.737Z" fill="white"/>
<path d="M427.827 439.123H382.19C379.517 439.12 376.954 438.077 375.064 436.222C373.174 434.366 372.111 431.851 372.108 429.228V384.438C372.111 381.815 373.174 379.3 375.064 377.445C376.954 375.589 379.517 374.546 382.19 374.543H427.827C430.5 374.546 433.063 375.589 434.953 377.445C436.843 379.3 437.906 381.815 437.909 384.438V429.228C437.906 431.851 436.843 434.366 434.953 436.222C433.063 438.077 430.5 439.12 427.827 439.123V439.123ZM382.19 376.626C380.08 376.629 378.057 377.452 376.564 378.917C375.072 380.381 374.233 382.367 374.23 384.438V429.228C374.233 431.299 375.072 433.285 376.564 434.749C378.057 436.214 380.08 437.038 382.19 437.04H427.827C429.937 437.038 431.96 436.214 433.453 434.749C434.945 433.285 435.784 431.299 435.787 429.228V384.438C435.784 382.367 434.945 380.381 433.453 378.917C431.96 377.452 429.937 376.629 427.827 376.626H382.19Z" fill="#CCCCCC"/>
<path d="M418.806 426.624H391.212C390.367 426.623 389.558 426.293 388.961 425.707C388.364 425.122 388.029 424.327 388.028 423.499V390.167C388.029 389.339 388.364 388.544 388.961 387.959C389.558 387.373 390.367 387.043 391.212 387.042H411.206C411.931 387.043 412.635 387.286 413.201 387.732L420.8 393.725C421.172 394.017 421.472 394.388 421.678 394.809C421.884 395.231 421.991 395.693 421.99 396.161V423.499C421.989 424.327 421.653 425.122 421.056 425.707C420.459 426.293 419.65 426.623 418.806 426.624V426.624ZM391.212 389.126C390.93 389.126 390.66 389.236 390.461 389.431C390.263 389.626 390.151 389.891 390.15 390.167V423.499C390.151 423.775 390.263 424.04 390.461 424.235C390.66 424.43 390.93 424.54 391.212 424.54H418.806C419.087 424.54 419.357 424.43 419.556 424.235C419.755 424.04 419.867 423.775 419.867 423.499V396.161C419.867 396.005 419.832 395.851 419.763 395.71C419.695 395.57 419.595 395.446 419.471 395.349L411.87 389.355C411.682 389.207 411.448 389.126 411.206 389.126H391.212Z" fill="#CCCCCC"/>
<path d="M413.499 401.625H396.518C396.237 401.625 395.967 401.515 395.768 401.32C395.569 401.125 395.457 400.86 395.457 400.583C395.457 400.307 395.569 400.042 395.768 399.847C395.967 399.651 396.237 399.542 396.518 399.542H413.499C413.781 399.542 414.051 399.651 414.25 399.847C414.449 400.042 414.56 400.307 414.56 400.583C414.56 400.86 414.449 401.125 414.25 401.32C414.051 401.515 413.781 401.625 413.499 401.625Z" fill="#CCCCCC"/>
<path d="M413.499 407.875H396.518C396.237 407.875 395.967 407.765 395.768 407.57C395.569 407.374 395.457 407.109 395.457 406.833C395.457 406.557 395.569 406.292 395.768 406.097C395.967 405.901 396.237 405.792 396.518 405.792H413.499C413.781 405.792 414.051 405.901 414.25 406.097C414.449 406.292 414.56 406.557 414.56 406.833C414.56 407.109 414.449 407.374 414.25 407.57C414.051 407.765 413.781 407.875 413.499 407.875Z" fill="#CCCCCC"/>
<path d="M413.499 414.124H396.518C396.237 414.124 395.967 414.015 395.768 413.819C395.569 413.624 395.457 413.359 395.457 413.083C395.457 412.806 395.569 412.542 395.768 412.346C395.967 412.151 396.237 412.041 396.518 412.041H413.499C413.781 412.041 414.051 412.151 414.25 412.346C414.449 412.542 414.56 412.806 414.56 413.083C414.56 413.359 414.449 413.624 414.25 413.819C414.051 414.015 413.781 414.124 413.499 414.124Z" fill="#CCCCCC"/>
<path d="M536.081 439.123H490.444C487.771 439.12 485.209 438.077 483.318 436.222C481.428 434.366 480.365 431.851 480.362 429.228V384.438C480.365 381.815 481.428 379.3 483.318 377.445C485.209 375.589 487.771 374.546 490.444 374.543H536.081C538.754 374.546 541.317 375.589 543.207 377.445C545.097 379.3 546.16 381.815 546.163 384.438V429.228C546.16 431.851 545.097 434.366 543.207 436.222C541.317 438.077 538.754 439.12 536.081 439.123V439.123ZM490.444 376.626C488.334 376.629 486.311 377.452 484.819 378.917C483.326 380.381 482.487 382.367 482.485 384.438V429.228C482.487 431.299 483.326 433.285 484.819 434.749C486.311 436.214 488.334 437.038 490.444 437.04H536.081C538.191 437.038 540.215 436.214 541.707 434.749C543.199 433.285 544.038 431.299 544.041 429.228V384.438C544.038 382.367 543.199 380.381 541.707 378.917C540.215 377.452 538.191 376.629 536.081 376.626H490.444Z" fill="#CCCCCC"/>
<path d="M528.121 418.291H498.404C497.56 418.29 496.751 417.96 496.154 417.375C495.557 416.789 495.221 415.994 495.22 415.166V398.5C495.221 397.672 495.557 396.877 496.154 396.291C496.751 395.706 497.56 395.376 498.404 395.375H528.121C528.965 395.376 529.775 395.706 530.371 396.291C530.968 396.877 531.304 397.672 531.305 398.5V415.166C531.304 415.994 530.968 416.789 530.371 417.375C529.775 417.96 528.965 418.29 528.121 418.291V418.291ZM498.404 397.458C498.123 397.459 497.853 397.569 497.654 397.764C497.455 397.959 497.343 398.224 497.343 398.5V415.166C497.343 415.442 497.455 415.707 497.654 415.902C497.853 416.097 498.123 416.207 498.404 416.208H528.121C528.402 416.207 528.672 416.097 528.871 415.902C529.07 415.707 529.182 415.442 529.182 415.166V398.5C529.182 398.224 529.07 397.959 528.871 397.764C528.672 397.569 528.402 397.459 528.121 397.458H498.404Z" fill="#CCCCCC"/>
<path d="M513.263 409.581C512.666 409.582 512.082 409.418 511.575 409.109L495.719 399.383C495.481 399.237 495.312 399.003 495.249 398.734C495.186 398.465 495.234 398.183 495.383 397.949C495.532 397.715 495.77 397.548 496.044 397.486C496.318 397.424 496.606 397.471 496.844 397.617L512.701 407.343C512.87 407.445 513.064 407.5 513.263 407.5C513.462 407.5 513.657 407.445 513.825 407.343L529.681 397.617C529.92 397.471 530.208 397.424 530.481 397.486C530.755 397.548 530.993 397.715 531.142 397.949C531.291 398.183 531.339 398.465 531.277 398.734C531.214 399.003 531.045 399.237 530.806 399.383L514.951 409.109C514.444 409.419 513.859 409.582 513.263 409.581V409.581Z" fill="#CCCCCC"/>
<path d="M319.573 439.123H273.936C271.263 439.12 268.7 438.077 266.81 436.222C264.92 434.366 263.857 431.851 263.854 429.228V384.438C263.857 381.815 264.92 379.3 266.81 377.445C268.7 375.589 271.263 374.546 273.936 374.543H319.573C322.246 374.546 324.809 375.589 326.699 377.445C328.589 379.3 329.652 381.815 329.655 384.438V429.228C329.652 431.851 328.589 434.366 326.699 436.222C324.809 438.077 322.246 439.12 319.573 439.123V439.123ZM273.936 376.626C271.826 376.629 269.803 377.452 268.31 378.917C266.818 380.381 265.979 382.367 265.976 384.438V429.228C265.979 431.299 266.818 433.285 268.31 434.749C269.803 436.214 271.826 437.038 273.936 437.04H319.573C321.683 437.038 323.706 436.214 325.199 434.749C326.691 433.285 327.53 431.299 327.533 429.228V384.438C327.53 382.367 326.691 380.381 325.199 378.917C323.706 377.452 321.683 376.629 319.573 376.626H273.936Z" fill="#CCCCCC"/>
<path d="M311.613 418.291H281.896C281.052 418.29 280.243 417.96 279.646 417.375C279.049 416.789 278.713 415.994 278.712 415.166V398.5C278.713 397.672 279.049 396.877 279.646 396.291C280.243 395.706 281.052 395.376 281.896 395.375H311.613C312.457 395.376 313.266 395.706 313.863 396.291C314.46 396.877 314.796 397.672 314.797 398.5V415.166C314.796 415.994 314.46 416.789 313.863 417.375C313.266 417.96 312.457 418.29 311.613 418.291V418.291ZM281.896 397.458C281.615 397.459 281.345 397.569 281.146 397.764C280.947 397.959 280.835 398.224 280.835 398.5V415.166C280.835 415.442 280.947 415.707 281.146 415.902C281.345 416.097 281.615 416.207 281.896 416.208H311.613C311.894 416.207 312.164 416.097 312.363 415.902C312.562 415.707 312.674 415.442 312.674 415.166V398.5C312.674 398.224 312.562 397.959 312.363 397.764C312.164 397.569 311.894 397.459 311.613 397.458H281.896Z" fill="#CCCCCC"/>
<path d="M306.903 418.291H285.545C285.172 418.291 284.806 418.195 284.483 418.012C284.161 417.829 283.893 417.566 283.706 417.249C283.52 416.933 283.422 416.573 283.422 416.208C283.422 415.842 283.52 415.483 283.707 415.166L290.14 404.229C290.326 403.912 290.594 403.649 290.917 403.466C291.24 403.284 291.606 403.187 291.978 403.187C292.351 403.187 292.717 403.284 293.04 403.466C293.362 403.649 293.63 403.912 293.817 404.229L297.972 411.292L300.379 407.2C300.565 406.884 300.833 406.621 301.156 406.438C301.479 406.255 301.845 406.159 302.217 406.159C302.59 406.159 302.956 406.255 303.279 406.438C303.601 406.621 303.869 406.884 304.056 407.2L308.741 415.166C308.928 415.483 309.026 415.842 309.026 416.208C309.026 416.573 308.928 416.933 308.741 417.249C308.555 417.566 308.287 417.829 307.964 418.012C307.641 418.195 307.275 418.291 306.903 418.291H306.903ZM306.903 416.208L302.217 408.242L298.891 413.896C298.798 414.055 298.664 414.186 298.503 414.278C298.341 414.369 298.158 414.417 297.972 414.417V414.417C297.785 414.417 297.602 414.369 297.441 414.278C297.28 414.186 297.146 414.055 297.052 413.896L291.979 405.271L285.545 416.208H306.903Z" fill="#CCCCCC"/>
<path d="M308.429 403.708C309.601 403.708 310.551 402.775 310.551 401.625C310.551 400.474 309.601 399.542 308.429 399.542C307.256 399.542 306.306 400.474 306.306 401.625C306.306 402.775 307.256 403.708 308.429 403.708Z" fill="#CCCCCC"/>
<path d="M815.965 675.123L802.954 675.122L796.764 625.866L815.967 625.867L815.965 675.123Z" fill="#FFB8B8"/>
<path d="M819.283 687.501L777.329 687.5V686.979C777.329 684.874 777.751 682.79 778.572 680.846C779.393 678.901 780.596 677.135 782.112 675.646C783.628 674.158 785.429 672.978 787.41 672.172C789.391 671.367 791.514 670.952 793.659 670.952H793.66L819.284 670.953L819.283 687.501Z" fill="#2F2E41"/>
<path d="M869.031 675.123L856.019 675.122L849.83 625.866L869.033 625.867L869.031 675.123Z" fill="#FFB8B8"/>
<path d="M872.349 687.501L830.395 687.5V686.979C830.395 684.874 830.817 682.79 831.638 680.846C832.458 678.901 833.661 677.135 835.178 675.646C836.694 674.158 838.494 672.978 840.475 672.172C842.457 671.367 844.58 670.952 846.725 670.952H846.726L872.35 670.953L872.349 687.501Z" fill="#2F2E41"/>
<path d="M865.13 653.77L853.08 650.172C852.181 649.905 851.384 649.384 850.786 648.674C850.188 647.963 849.817 647.096 849.72 646.18L838.485 541.678C838.476 541.552 838.419 541.434 838.324 541.347C838.23 541.261 838.106 541.213 837.977 541.213C837.848 541.2 837.719 541.238 837.618 541.318C837.517 541.397 837.451 541.512 837.435 541.639L818.617 642.883C818.503 643.497 818.264 644.083 817.916 644.606C817.568 645.128 817.117 645.577 816.59 645.927C816.062 646.276 815.469 646.518 814.845 646.64C814.221 646.761 813.578 646.758 812.955 646.632L797.554 643.519C796.424 643.287 795.418 642.663 794.72 641.761C794.021 640.859 793.678 639.741 793.753 638.611L805.199 472.668L882.822 464.448L871.287 649.571C871.213 650.761 870.679 651.879 869.795 652.697C868.911 653.514 867.743 653.971 866.528 653.974C866.054 653.974 865.583 653.905 865.13 653.77V653.77Z" fill="white"/>
<path d="M865.057 328.159C879.453 328.159 891.124 316.705 891.124 302.576C891.124 288.446 879.453 276.992 865.057 276.992C850.66 276.992 838.99 288.446 838.99 302.576C838.99 316.705 850.66 328.159 865.057 328.159Z" fill="#FFB8B8"/>
<path d="M805.08 473.643L821.91 369.637C822.805 364.107 824.89 358.827 828.026 354.15C831.161 349.472 835.276 345.503 840.096 342.508C844.916 339.512 850.33 337.558 855.98 336.776C861.629 335.994 867.383 336.402 872.859 337.972V337.972C882.434 340.69 890.632 346.813 895.853 355.146C901.073 363.479 902.941 373.423 901.091 383.035L883.483 475.917L805.08 473.643Z" fill="#637FB1"/>
<path d="M872.253 492.252C873.555 491.409 874.653 490.295 875.469 488.99C876.285 487.685 876.799 486.22 876.976 484.698C877.153 483.177 876.987 481.636 876.492 480.184C875.996 478.732 875.182 477.405 874.107 476.295L891.509 443.222L871.912 445.275L858.391 476.366C856.611 478.262 855.602 480.733 855.554 483.311C855.507 485.889 856.424 488.394 858.133 490.352C859.841 492.31 862.222 493.585 864.825 493.935C867.427 494.286 870.07 493.687 872.253 492.252V492.252Z" fill="#FFB8B8"/>
<path d="M875.979 470.461C875.017 470.328 874.118 469.91 873.404 469.262L866.746 463.225C866.027 462.569 865.53 461.713 865.323 460.771C865.115 459.83 865.208 458.848 865.587 457.96L878.893 427.005L877.006 365.842C877.277 363.876 877.941 361.981 878.958 360.267C879.976 358.552 881.328 357.052 882.937 355.851C884.546 354.649 886.381 353.771 888.336 353.266C890.291 352.761 892.328 352.639 894.331 352.907C896.334 353.176 898.264 353.829 900.01 354.829C901.756 355.829 903.283 357.158 904.506 358.738C905.728 360.318 906.621 362.12 907.134 364.039C907.647 365.958 907.769 367.958 907.494 369.923L910.722 408.372C911.703 420.041 908.332 431.663 901.236 441.075L880.485 468.607C880.086 469.137 879.578 469.577 878.993 469.901C878.409 470.225 877.762 470.424 877.094 470.486C876.723 470.521 876.348 470.513 875.979 470.461V470.461Z" fill="#637FB1"/>
<path d="M714.945 288.637C715.229 290.143 715.846 291.569 716.752 292.815C717.659 294.061 718.833 295.098 720.191 295.851C721.55 296.604 723.06 297.055 724.616 297.173C726.171 297.291 727.734 297.073 729.195 296.534L753.441 325.156L759.156 306.645L735.255 282.303C734.17 279.955 732.245 278.079 729.845 277.031C727.445 275.983 724.737 275.835 722.233 276.616C719.73 277.397 717.605 279.052 716.262 281.267C714.919 283.483 714.45 286.105 714.945 288.637V288.637Z" fill="#FFB8B8"/>
<path d="M733.938 300.501C734.439 299.683 735.181 299.034 736.067 298.641L744.328 294.978C745.224 294.583 746.221 294.468 747.185 294.648C748.149 294.828 749.034 295.294 749.719 295.983L773.576 320.078L831.7 342.219C833.439 343.231 834.959 344.569 836.171 346.157C837.383 347.745 838.264 349.553 838.764 351.475C839.264 353.398 839.373 355.399 839.085 357.363C838.797 359.327 838.116 361.216 837.084 362.922C836.051 364.628 834.686 366.118 833.066 367.305C831.446 368.493 829.604 369.356 827.644 369.845C825.685 370.333 823.646 370.438 821.645 370.152C819.644 369.867 817.72 369.198 815.983 368.182L778.649 356.108C767.318 352.445 757.728 344.867 751.663 334.784L733.921 305.296C733.58 304.729 733.364 304.097 733.289 303.443C733.213 302.789 733.278 302.126 733.48 301.499C733.592 301.149 733.746 300.815 733.938 300.501V300.501Z" fill="#637FB1"/>
<path opacity="0.1" d="M886.2 391.285L885.139 424.616L865.587 457.96L881.912 420.802L886.2 391.285Z" fill="black"/>
<path d="M862.07 307.383C860.433 307.592 858.774 307.211 857.402 306.31C856.03 305.409 855.037 304.05 854.608 302.486C854.195 300.684 853.29 299.028 851.991 297.693C850.691 296.358 849.046 295.396 847.232 294.909C842.45 293.837 836.606 296.046 833.102 292.49C832.352 291.679 831.809 290.703 831.518 289.645C831.227 288.587 831.197 287.477 831.43 286.405C832.075 282.95 834.594 280.339 837.334 278.252C843.102 273.879 850.081 271.319 857.357 270.907C861.123 270.8 864.892 270.984 868.629 271.458C872.542 271.7 876.412 272.394 880.159 273.526C884.428 275.107 888.222 277.719 891.19 281.119C894.158 284.52 896.205 288.601 897.142 292.983C897.998 297.38 897.867 301.906 896.756 306.248C895.646 310.589 893.584 314.64 890.713 318.118C887.277 322.318 882.846 325.628 877.807 327.762C876.607 328.318 875.231 328.387 873.98 327.952C870.841 326.728 871.354 322.912 872.785 320.367C874.316 317.643 876.673 315.006 875.441 311.692C874.824 310.155 873.639 308.903 872.122 308.185C869.002 306.624 865.512 306.993 862.158 307.373L862.07 307.383Z" fill="#C38570"/>
<path d="M706.234 321.831H383.594C378.952 321.825 374.501 320.013 371.218 316.791C367.935 313.569 366.088 309.2 366.083 304.644V236.939C366.088 232.382 367.935 228.014 371.218 224.792C374.501 221.57 378.952 219.757 383.594 219.752H706.234C710.877 219.757 715.328 221.57 718.611 224.792C721.894 228.014 723.74 232.382 723.746 236.939V304.644C723.74 309.2 721.894 313.569 718.611 316.791C715.328 320.013 710.877 321.825 706.234 321.831V321.831Z" fill="white"/>
<path d="M706.234 322.351H383.594C378.811 322.346 374.225 320.479 370.842 317.159C367.46 313.84 365.557 309.339 365.552 304.644V236.939C365.557 232.244 367.46 227.743 370.842 224.424C374.225 221.104 378.811 219.237 383.594 219.232H706.234C711.017 219.237 715.603 221.104 718.986 224.424C722.368 227.743 724.271 232.244 724.276 236.939V304.644C724.271 309.339 722.368 313.84 718.986 317.159C715.603 320.479 711.017 322.346 706.234 322.351ZM383.594 221.315C379.374 221.319 375.327 222.967 372.343 225.896C369.358 228.825 367.679 232.797 367.675 236.939V304.644C367.679 308.786 369.358 312.758 372.343 315.687C375.327 318.616 379.374 320.264 383.594 320.268H706.234C710.455 320.264 714.501 318.616 717.486 315.687C720.47 312.758 722.149 308.786 722.154 304.644V236.939C722.149 232.797 720.47 228.825 717.486 225.896C714.501 222.967 710.455 221.319 706.234 221.315H383.594Z" fill="#3F3D56"/>
<path d="M666.965 305.165H422.863C418.22 305.16 413.769 303.347 410.486 300.125C407.203 296.903 405.356 292.535 405.351 287.978V252.563C405.356 248.007 407.203 243.638 410.486 240.416C413.769 237.194 418.22 235.382 422.863 235.377H666.965C671.608 235.382 676.059 237.194 679.342 240.416C682.625 243.638 684.472 248.007 684.477 252.563V287.978C684.472 292.535 682.625 296.903 679.342 300.125C676.059 303.347 671.608 305.16 666.965 305.165V305.165Z" fill="#F2F2F2"/>
<path d="M475.393 286.077C486.959 286.077 496.335 276.875 496.335 265.523C496.335 254.172 486.959 244.97 475.393 244.97C463.827 244.97 454.45 254.172 454.45 265.523C454.45 276.875 463.827 286.077 475.393 286.077Z" fill="#FF6584"/>
<path d="M651.796 303.091L622.236 278.759L593.186 254.847C592.419 254.216 591.45 253.871 590.449 253.873C589.449 253.875 588.481 254.224 587.717 254.858L558.761 278.879L551.688 284.747L541.024 275.969L508.614 249.292C507.848 248.661 506.879 248.316 505.878 248.318C504.878 248.32 503.91 248.668 503.146 249.302L470.842 276.101L438.029 303.322C437.863 303.46 437.744 303.645 437.688 303.851C437.632 304.058 437.643 304.276 437.718 304.477C437.793 304.677 437.929 304.85 438.107 304.973C438.286 305.095 438.498 305.16 438.716 305.159L505.989 305.032L527.284 304.992L527.075 305.165L590.55 305.045L651.116 304.93C651.334 304.93 651.546 304.864 651.724 304.741C651.902 304.618 652.038 304.445 652.112 304.244C652.186 304.043 652.196 303.825 652.139 303.618C652.082 303.412 651.963 303.228 651.796 303.091Z" fill="#3F3D56"/>
<path d="M928.939 689H725.166C724.885 689 724.615 688.89 724.416 688.695C724.217 688.5 724.105 688.235 724.105 687.958C724.105 687.682 724.217 687.417 724.416 687.222C724.615 687.027 724.885 686.917 725.166 686.917H928.939C929.22 686.917 929.49 687.027 929.689 687.222C929.888 687.417 930 687.682 930 687.958C930 688.235 929.888 688.5 929.689 688.695C929.49 688.89 929.22 689 928.939 689Z" fill="#CCCCCC"/>
<path d="M641.094 137.402C640.246 136.05 639.126 134.882 637.803 133.968C636.481 133.055 634.982 132.416 633.399 132.09C632.819 131.97 632.23 131.897 631.638 131.871L550.776 60.916C549.187 59.3138 547.069 58.3202 544.801 58.1141C544.353 58.0636 543.902 58.0497 543.453 58.0724C541.587 58.1556 539.786 58.7705 538.271 59.842C536.756 60.9135 535.592 62.395 534.921 64.1056C534.249 65.8161 534.101 67.6815 534.493 69.4736C534.885 71.2657 535.8 72.9069 537.127 74.1966L568.086 100.685L618.923 144.172C618.964 144.991 619.089 145.804 619.294 146.599C619.903 148.902 621.21 150.969 623.043 152.526C624.876 154.083 627.147 155.057 629.557 155.318C631.755 155.57 633.98 155.208 635.978 154.276C637.562 153.549 638.967 152.493 640.096 151.182C640.213 151.047 640.319 150.922 640.425 150.776C641.909 148.878 642.768 146.581 642.888 144.191C643.007 141.802 642.381 139.433 641.094 137.402H641.094Z" fill="#FFB8B8"/>
<path d="M502.783 205.784L502.03 175.723L501.393 150.776L500.958 133.319L500.098 99.2891C499.928 97.4672 499.221 95.7332 498.064 94.299C496.906 92.8647 495.348 91.7921 493.58 91.2122C491.812 90.6323 489.91 90.5702 488.107 91.0334C486.304 91.4966 484.676 92.4651 483.425 93.8207C483.13 94.1304 482.863 94.465 482.629 94.8206C481.322 96.6572 480.734 98.8947 480.973 101.122L482.862 150.776L483.807 175.723L485.016 207.544C484.668 208.012 484.352 208.503 484.072 209.013C483.317 210.417 482.861 211.958 482.732 213.541C482.602 215.124 482.802 216.716 483.319 218.221C483.858 219.799 484.732 221.247 485.882 222.47C487.033 223.692 488.435 224.662 489.995 225.314C491.555 225.967 493.239 226.287 494.934 226.255C496.63 226.223 498.299 225.838 499.832 225.127C501.613 224.3 503.159 223.056 504.334 221.504C505.509 219.952 506.276 218.14 506.567 216.228C506.859 214.316 506.666 212.363 506.006 210.541C505.346 208.72 504.239 207.086 502.783 205.784H502.783Z" fill="#FFB8B8"/>
<path d="M575.589 120.632L568.086 100.685L555.944 68.374C555.068 66.0231 553.664 63.896 551.836 62.1505C550.008 60.405 547.803 59.0859 545.384 58.2912C545.193 58.2287 544.992 58.1662 544.801 58.1141C542.458 57.4162 539.989 57.2242 537.563 57.5515C535.138 57.8787 532.813 58.7174 530.749 60.0098L489.856 85.4669C486.111 87.793 483.434 91.4567 482.39 95.6841C481.347 99.9115 482.018 104.372 484.263 108.122C489.377 116.801 494.949 125.211 500.958 133.319C505.723 139.683 514.596 140.36 516.135 150.776H546.286L576.81 123.882L575.589 120.632Z" fill="#CCCCCC"/>
<path d="M107.368 364.413C120.95 364.413 131.96 353.607 131.96 340.277C131.96 326.947 120.95 316.141 107.368 316.141C93.7855 316.141 82.7751 326.947 82.7751 340.277C82.7751 353.607 93.7855 364.413 107.368 364.413Z" fill="#A0616A"/>
<path d="M167.742 323.663C167.985 323.853 168.219 324.053 168.447 324.265C169.577 325.31 170.469 326.577 171.065 327.983C171.661 329.39 171.947 330.904 171.906 332.426C171.864 333.949 171.495 335.446 170.822 336.819C170.15 338.192 169.19 339.41 168.004 340.393C167.728 340.621 167.44 340.834 167.14 341.032L168.805 396.18C168.852 397.986 168.305 399.758 167.245 401.234C166.185 402.71 164.668 403.812 162.92 404.375L162.818 404.396L117.194 409.165C115.954 409.294 114.699 409.181 113.504 408.832C112.308 408.483 111.195 407.905 110.228 407.132C109.261 406.358 108.46 405.404 107.871 404.325C107.282 403.246 106.916 402.063 106.795 400.845C106.675 399.626 106.801 398.396 107.167 397.226C107.534 396.056 108.133 394.968 108.929 394.026C109.726 393.085 110.705 392.307 111.81 391.739C112.915 391.17 114.124 390.822 115.366 390.715L147.889 387.904L153.514 340.144C153.146 339.825 152.801 339.48 152.483 339.113C150.719 337.065 149.794 334.446 149.888 331.766C149.981 329.086 151.086 326.536 152.988 324.61C154.889 322.684 157.452 321.521 160.179 321.346C162.906 321.171 165.601 321.997 167.742 323.663H167.742Z" fill="#A0616A"/>
<path d="M147.871 676.189H160.147L165.986 629.72H147.869L147.871 676.189Z" fill="#A0616A"/>
<path d="M144.74 672.256L168.915 672.255H168.916C170.939 672.255 172.942 672.646 174.811 673.406C176.681 674.166 178.379 675.279 179.81 676.684C181.24 678.088 182.375 679.754 183.149 681.589C183.923 683.423 184.322 685.389 184.322 687.375V687.866L144.741 687.868L144.74 672.256Z" fill="#2F2E41"/>
<path d="M25.86 659.532L36.4073 665.695L65.6497 628.7L50.0824 619.604L25.86 659.532Z" fill="#A0616A"/>
<path d="M25.2199 654.58L45.9916 666.718L45.9924 666.719C47.7308 667.734 49.2482 669.076 50.4582 670.668C51.6681 672.259 52.5468 674.069 53.044 675.994C53.5413 677.918 53.6475 679.92 53.3564 681.885C53.0653 683.85 52.3827 685.74 51.3476 687.446L51.0915 687.868L17.0822 667.995L25.2199 654.58Z" fill="#2F2E41"/>
<path d="M163.043 659.776H149.298C148.184 659.778 147.11 659.375 146.283 658.644C145.455 657.914 144.933 656.908 144.817 655.821L130.959 527.976C130.924 527.655 130.783 527.353 130.556 527.118C130.329 526.883 130.029 526.728 129.704 526.677C129.378 526.626 129.044 526.681 128.754 526.834C128.464 526.988 128.233 527.23 128.097 527.525L103.097 581.855L58.8366 652.687C58.2637 653.595 57.3768 654.27 56.3381 654.589C55.2995 654.908 54.1787 654.848 53.1809 654.422L35.4991 646.787C34.9145 646.535 34.3913 646.163 33.9641 645.697C33.5369 645.231 33.2156 644.681 33.0214 644.083C32.8273 643.486 32.7647 642.855 32.8378 642.232C32.911 641.609 33.1182 641.009 33.4457 640.471L74.1334 573.607L86.612 517.271C82.6873 492.84 99.5123 456.518 99.6829 456.153L99.7663 455.976L146.111 438.198L146.344 438.477C164.621 497.343 175.758 560.692 167.535 655.725C167.433 656.827 166.917 657.853 166.087 658.602C165.256 659.351 164.171 659.77 163.043 659.776V659.776Z" fill="white"/>
<path d="M97.8991 461.929L97.6833 461.483C97.5801 461.27 87.275 439.939 79.331 417.14C77.8043 412.732 77.2272 408.06 77.6361 403.421C78.0451 398.781 79.4313 394.276 81.7069 390.19C84.012 386.062 87.1657 382.449 90.968 379.579C94.7703 376.71 99.1384 374.646 103.796 373.52V373.52C111.881 371.618 120.393 372.63 127.781 376.372C135.17 380.113 140.943 386.335 144.049 393.904C150.35 409.369 148.342 425.876 146.452 438.857L146.414 439.117L146.173 439.231L97.8991 461.929Z" fill="#637FB1"/>
<path d="M137.185 326.643H98.1353V309.938C106.706 306.596 115.093 303.754 120.163 309.938C124.678 309.938 129.007 311.698 132.2 314.831C135.392 317.964 137.185 322.213 137.185 326.643V326.643Z" fill="#C38570"/>
<path d="M95.9733 306.99C72.6286 306.99 66.0944 335.708 66.0944 351.91C66.0944 360.945 70.2579 364.177 76.8004 365.27L79.111 353.176L84.5227 365.791C86.3604 365.8 88.2911 365.765 90.2927 365.728L92.1276 362.02L96.2192 365.662C112.607 365.686 125.852 368.03 125.852 351.91C125.852 335.708 120.121 306.99 95.9733 306.99Z" fill="#C38570"/>
<path d="M204.834 689H1.06131C0.779837 689 0.509886 688.89 0.310851 688.695C0.111816 688.5 0 688.235 0 687.958C0 687.682 0.111816 687.417 0.310851 687.222C0.509886 687.027 0.779837 686.917 1.06131 686.917H204.834C205.115 686.917 205.385 687.027 205.584 687.222C205.783 687.417 205.895 687.682 205.895 687.958C205.895 688.235 205.783 688.5 205.584 688.695C205.385 688.89 205.115 689 204.834 689Z" fill="#CCCCCC"/>
<path d="M208.665 346.309H163.029C160.356 346.306 157.793 345.262 155.903 343.407C154.013 341.552 152.949 339.037 152.946 336.413V291.624C152.949 289 154.013 286.485 155.903 284.63C157.793 282.775 160.356 281.731 163.029 281.729H208.665C211.338 281.731 213.901 282.775 215.791 284.63C217.682 286.485 218.745 289 218.748 291.624V336.413C218.745 339.037 217.682 341.552 215.791 343.407C213.901 345.262 211.338 346.306 208.665 346.309V346.309Z" fill="white"/>
<path d="M208.665 346.309H163.029C160.356 346.306 157.793 345.262 155.903 343.407C154.013 341.552 152.949 339.037 152.946 336.413V291.624C152.949 289 154.013 286.485 155.903 284.63C157.793 282.775 160.356 281.731 163.029 281.729H208.665C211.338 281.731 213.901 282.775 215.791 284.63C217.682 286.485 218.745 289 218.748 291.624V336.413C218.745 339.037 217.682 341.552 215.791 343.407C213.901 345.262 211.338 346.306 208.665 346.309V346.309ZM163.029 283.812C160.918 283.814 158.895 284.638 157.403 286.102C155.911 287.567 155.071 289.553 155.069 291.624V336.413C155.071 338.484 155.911 340.47 157.403 341.935C158.895 343.399 160.918 344.223 163.029 344.225H208.665C210.776 344.223 212.799 343.399 214.291 341.935C215.783 340.47 216.623 338.484 216.625 336.413V291.624C216.623 289.553 215.783 287.567 214.291 286.102C212.799 284.638 210.776 283.814 208.665 283.812H163.029Z" fill="#3F3D56"/>
<path d="M200.705 328.08H170.989C170.145 328.08 169.335 327.75 168.738 327.164C168.141 326.578 167.806 325.784 167.805 324.956V303.082C167.806 302.253 168.141 301.459 168.738 300.873C169.335 300.287 170.145 299.958 170.989 299.957H179.354C179.898 299.955 180.434 300.091 180.909 300.351C181.384 300.611 181.783 300.988 182.066 301.443L184.399 305.165H200.705C201.55 305.166 202.359 305.495 202.956 306.081C203.553 306.667 203.888 307.461 203.889 308.29V324.956C203.888 325.784 203.553 326.578 202.956 327.164C202.359 327.75 201.55 328.08 200.705 328.08V328.08Z" fill="#637FB1"/>
<path d="M199.739 339.131C199.887 339.398 200.024 339.672 200.15 339.954C200.779 341.347 201.1 342.855 201.093 344.378C201.086 345.901 200.752 347.406 200.111 348.793C199.471 350.181 198.539 351.42 197.376 352.429C196.214 353.438 194.847 354.195 193.366 354.65C193.021 354.755 192.671 354.841 192.317 354.91L172.046 406.371C171.376 408.053 170.172 409.478 168.611 410.434C167.05 411.391 165.217 411.829 163.383 411.682L163.281 411.663L119.346 398.682C118.151 398.329 117.04 397.747 116.076 396.97C115.112 396.194 114.314 395.237 113.729 394.156C113.143 393.075 112.782 391.89 112.666 390.671C112.549 389.452 112.68 388.223 113.051 387.054C113.421 385.885 114.024 384.799 114.825 383.86C115.625 382.921 116.607 382.147 117.714 381.582C118.821 381.018 120.031 380.674 121.274 380.571C122.517 380.468 123.768 380.607 124.956 380.982L156.042 390.777L180.109 348.902C179.896 348.468 179.715 348.019 179.567 347.559C178.751 345 178.934 342.234 180.08 339.8C181.226 337.365 183.252 335.435 185.766 334.385C188.28 333.335 191.102 333.239 193.684 334.116C196.266 334.993 198.424 336.78 199.739 339.131H199.739Z" fill="#A0616A"/>
</g>
<defs>
<clipPath id="clip0_23_296">
<rect width="930" height="689" fill="white"/>
</clipPath>
</defs>
</svg>
