<svg width="913" height="626" viewBox="0 0 913 626" fill="none" xmlns="http://www.w3.org/2000/svg">
<g clip-path="url(#clip0_23_356)">
<path d="M580.644 195.849C582.366 175.714 587.123 156.024 594.723 137.563C596.842 132.425 599.173 127.401 601.718 122.49C601.846 122.233 601.876 121.932 601.804 121.651C601.731 121.37 601.561 121.131 601.329 120.983C601.097 120.836 600.821 120.792 600.56 120.862C600.299 120.931 600.072 121.107 599.929 121.354C590.674 139.242 584.191 158.66 580.738 178.831C579.778 184.464 579.056 190.136 578.572 195.849C578.45 197.29 580.522 197.281 580.644 195.849V195.849Z" fill="#E6E6E6"/>
<path d="M606.736 126.097C613.984 126.097 619.859 119.719 619.859 111.851C619.859 103.983 613.984 97.6046 606.736 97.6046C599.489 97.6046 593.614 103.983 593.614 111.851C593.614 119.719 599.489 126.097 606.736 126.097Z" fill="#E6E6E6"/>
<path d="M581.987 196.227C583.104 183.165 586.189 170.391 591.12 158.414C592.495 155.081 594.007 151.822 595.658 148.636C595.741 148.469 595.761 148.274 595.714 148.092C595.667 147.909 595.556 147.754 595.406 147.659C595.255 147.563 595.076 147.535 594.907 147.58C594.737 147.625 594.591 147.739 594.497 147.899C588.494 159.504 584.288 172.101 582.047 185.187C581.424 188.841 580.956 192.521 580.642 196.227C580.563 197.162 581.907 197.156 581.987 196.227V196.227Z" fill="#E6E6E6"/>
<path d="M598.914 150.976C603.616 150.976 607.427 146.838 607.427 141.734C607.427 136.629 603.616 132.492 598.914 132.492C594.212 132.492 590.401 136.629 590.401 141.734C590.401 146.838 594.212 150.976 598.914 150.976Z" fill="#E6E6E6"/>
<path d="M580.29 195.355C573.771 184.31 568.966 172.177 566.069 159.441C565.264 155.896 564.61 152.316 564.107 148.701C564.078 148.514 563.983 148.347 563.843 148.235C563.702 148.122 563.527 148.074 563.354 148.099C563.181 148.124 563.024 148.221 562.916 148.37C562.808 148.518 562.757 148.707 562.774 148.895C564.615 162.054 568.436 174.795 574.083 186.609C575.662 189.907 577.378 193.121 579.23 196.252C579.697 197.043 580.754 196.14 580.29 195.355Z" fill="#E6E6E6"/>
<path d="M562.764 150.327C567.465 150.327 571.277 146.189 571.277 141.085C571.277 135.981 567.465 131.843 562.764 131.843C558.062 131.843 554.25 135.981 554.25 141.085C554.25 146.189 558.062 150.327 562.764 150.327Z" fill="#E6E6E6"/>
<path d="M554.155 203.532V185.373C554.157 183.568 554.818 181.837 555.994 180.56C557.17 179.283 558.764 178.565 560.427 178.563H599.456C601.119 178.565 602.714 179.283 603.89 180.56C605.066 181.837 605.727 183.568 605.729 185.373V203.532C605.727 205.337 605.066 207.068 603.89 208.345C602.714 209.621 601.119 210.34 599.456 210.342H560.427C558.764 210.34 557.17 209.621 555.994 208.345C554.818 207.068 554.157 205.337 554.155 203.532Z" fill="#F2F2F2"/>
<path d="M598.063 87.7684H581.336C579.673 87.7664 578.078 87.0483 576.902 85.7717C575.727 84.4951 575.065 82.7642 575.063 80.9588V6.80962C575.065 5.00422 575.727 3.27337 576.902 1.99676C578.078 0.72015 579.673 0.00203465 581.336 0H598.063C599.726 0.00203465 601.32 0.72015 602.496 1.99676C603.672 3.27337 604.333 5.00422 604.335 6.80962V80.9588C604.333 82.7642 603.672 84.4951 602.496 85.7717C601.32 87.0483 599.726 87.7664 598.063 87.7684V87.7684Z" fill="#F2F2F2"/>
<path d="M603.638 14.3759H575.76V20.4288H603.638V14.3759Z" fill="#CCCCCC"/>
<path d="M603.638 61.2866H575.76V67.3396H603.638V61.2866Z" fill="#CCCCCC"/>
<path d="M639.879 87.7684H623.153C621.49 87.7664 619.895 87.0483 618.719 85.7717C617.543 84.4951 616.882 82.7642 616.88 80.9588V6.80962C616.882 5.00422 617.543 3.27337 618.719 1.99676C619.895 0.72015 621.49 0.00203465 623.153 0H639.879C641.542 0.00203465 643.137 0.72015 644.313 1.99676C645.488 3.27337 646.15 5.00422 646.152 6.80962V80.9588C646.15 82.7642 645.488 84.4951 644.313 85.7717C643.137 87.0483 641.542 87.7664 639.879 87.7684V87.7684Z" fill="#F2F2F2"/>
<path d="M645.455 14.3759H617.577V20.4288H645.455V14.3759Z" fill="#CCCCCC"/>
<path d="M645.455 61.2866H617.577V67.3396H645.455V61.2866Z" fill="#CCCCCC"/>
<path d="M681.696 87.7684H664.969C663.306 87.7664 661.712 87.0483 660.536 85.7717C659.36 84.4951 658.699 82.7642 658.697 80.9588V6.80962C658.699 5.00422 659.36 3.27337 660.536 1.99676C661.712 0.72015 663.306 0.00203465 664.969 0H681.696C683.359 0.00203465 684.953 0.72015 686.129 1.99676C687.305 3.27337 687.967 5.00422 687.969 6.80962V80.9588C687.967 82.7642 687.305 84.4951 686.129 85.7717C684.953 87.0483 683.359 87.7664 681.696 87.7684V87.7684Z" fill="#F2F2F2"/>
<path d="M687.272 14.3759H659.394V20.4288H687.272V14.3759Z" fill="#CCCCCC"/>
<path d="M687.272 61.2866H659.394V67.3396H687.272V61.2866Z" fill="#CCCCCC"/>
<path d="M703.998 210.342H687.272C685.609 210.34 684.014 209.621 682.838 208.345C681.662 207.068 681.001 205.337 680.999 203.532V129.383C681.001 127.577 681.662 125.847 682.838 124.57C684.014 123.293 685.609 122.575 687.272 122.573H703.998C705.661 122.575 707.256 123.293 708.432 124.57C709.608 125.847 710.269 127.577 710.271 129.383V203.532C710.269 205.337 709.608 207.068 708.432 208.345C707.256 209.621 705.661 210.34 703.998 210.342V210.342Z" fill="#F2F2F2"/>
<path d="M709.574 136.949H681.696V143.002H709.574V136.949Z" fill="#CCCCCC"/>
<path d="M709.574 183.86H681.696V189.913H709.574V183.86Z" fill="#CCCCCC"/>
<path d="M745.815 210.342H729.088C727.425 210.34 725.831 209.621 724.655 208.345C723.479 207.068 722.818 205.337 722.816 203.532V129.383C722.818 127.577 723.479 125.847 724.655 124.57C725.831 123.293 727.425 122.575 729.088 122.573H745.815C747.478 122.575 749.072 123.293 750.248 124.57C751.424 125.847 752.086 127.577 752.088 129.383V203.532C752.086 205.337 751.424 207.068 750.248 208.345C749.072 209.621 747.478 210.34 745.815 210.342Z" fill="#F2F2F2"/>
<path d="M751.391 136.949H723.513V143.002H751.391V136.949Z" fill="#CCCCCC"/>
<path d="M751.391 183.86H723.513V189.913H751.391V183.86Z" fill="#CCCCCC"/>
<path d="M787.632 210.342H770.905C769.242 210.34 767.648 209.621 766.472 208.345C765.296 207.068 764.635 205.337 764.633 203.532V129.383C764.635 127.577 765.296 125.847 766.472 124.57C767.648 123.293 769.242 122.575 770.905 122.573H787.632C789.295 122.575 790.889 123.293 792.065 124.57C793.241 125.847 793.903 127.577 793.905 129.383V203.532C793.903 205.337 793.241 207.068 792.065 208.345C790.889 209.621 789.295 210.34 787.632 210.342V210.342Z" fill="#F2F2F2"/>
<path d="M793.208 136.949H765.33V143.002H793.208V136.949Z" fill="#CCCCCC"/>
<path d="M793.208 183.86H765.33V189.913H793.208V183.86Z" fill="#CCCCCC"/>
<path d="M593.881 332.915H577.154C575.491 332.913 573.897 332.195 572.721 330.918C571.545 329.641 570.883 327.911 570.882 326.105V251.956C570.883 250.151 571.545 248.42 572.721 247.143C573.897 245.866 575.491 245.148 577.154 245.146H593.881C595.544 245.148 597.138 245.866 598.314 247.143C599.49 248.42 600.151 250.151 600.153 251.956V326.105C600.151 327.911 599.49 329.641 598.314 330.918C597.138 332.195 595.544 332.913 593.881 332.915Z" fill="#F2F2F2"/>
<path d="M599.456 259.522H571.578V265.575H599.456V259.522Z" fill="#CCCCCC"/>
<path d="M599.456 306.433H571.578V312.486H599.456V306.433Z" fill="#CCCCCC"/>
<path d="M635.698 332.915H618.971C617.308 332.913 615.713 332.195 614.538 330.918C613.362 329.641 612.7 327.911 612.698 326.105V251.956C612.7 250.151 613.362 248.42 614.538 247.143C615.713 245.866 617.308 245.148 618.971 245.146H635.698C637.361 245.148 638.955 245.866 640.131 247.143C641.307 248.42 641.968 250.151 641.97 251.956V326.105C641.968 327.911 641.307 329.641 640.131 330.918C638.955 332.195 637.361 332.913 635.698 332.915Z" fill="#F2F2F2"/>
<path d="M641.273 259.522H613.395V265.575H641.273V259.522Z" fill="#CCCCCC"/>
<path d="M641.273 306.433H613.395V312.486H641.273V306.433Z" fill="#CCCCCC"/>
<path d="M677.514 332.915H660.788C659.125 332.913 657.53 332.195 656.354 330.918C655.178 329.641 654.517 327.911 654.515 326.105V251.956C654.517 250.151 655.178 248.42 656.354 247.143C657.53 245.866 659.125 245.148 660.788 245.146H677.514C679.177 245.148 680.772 245.866 681.948 247.143C683.124 248.42 683.785 250.151 683.787 251.956V326.105C683.785 327.911 683.124 329.641 681.948 330.918C680.772 332.195 679.177 332.913 677.514 332.915V332.915Z" fill="#F2F2F2"/>
<path d="M683.09 259.522H655.212V265.575H683.09V259.522Z" fill="#CCCCCC"/>
<path d="M683.09 306.433H655.212V312.486H683.09V306.433Z" fill="#CCCCCC"/>
<path d="M723.513 87.7684H706.786C705.123 87.7664 703.529 87.0483 702.353 85.7717C701.177 84.4951 700.516 82.7642 700.514 80.9588V6.80962C700.516 5.00422 701.177 3.27337 702.353 1.99676C703.529 0.72015 705.123 0.00203465 706.786 0H723.513C725.176 0.00203465 726.77 0.72015 727.946 1.99676C729.122 3.27337 729.784 5.00422 729.785 6.80962V80.9588C729.784 82.7642 729.122 84.4951 727.946 85.7717C726.77 87.0483 725.176 87.7664 723.513 87.7684V87.7684Z" fill="#F2F2F2"/>
<path d="M729.088 14.3759H701.211V20.4288H729.088V14.3759Z" fill="#CCCCCC"/>
<path d="M729.088 61.2866H701.211V67.3396H729.088V61.2866Z" fill="#CCCCCC"/>
<path d="M765.33 87.7684H748.603C746.94 87.7664 745.346 87.0483 744.17 85.7717C742.994 84.4951 742.332 82.7642 742.33 80.9588V6.80962C742.332 5.00422 742.994 3.27337 744.17 1.99676C745.346 0.72015 746.94 0.00203465 748.603 0H765.33C766.993 0.00203465 768.587 0.72015 769.763 1.99676C770.939 3.27337 771.6 5.00422 771.602 6.80962V80.9588C771.6 82.7642 770.939 84.4951 769.763 85.7717C768.587 87.0483 766.993 87.7664 765.33 87.7684V87.7684Z" fill="#F2F2F2"/>
<path d="M770.905 14.3759H743.027V20.4288H770.905V14.3759Z" fill="#CCCCCC"/>
<path d="M770.905 61.2866H743.027V67.3396H770.905V61.2866Z" fill="#CCCCCC"/>
<path d="M807.146 87.7684H790.42C788.757 87.7664 787.162 87.0483 785.986 85.7717C784.81 84.4951 784.149 82.7642 784.147 80.9588V6.80962C784.149 5.00422 784.81 3.27337 785.986 1.99676C787.162 0.72015 788.757 0.00203465 790.42 0H807.146C808.809 0.00203465 810.404 0.72015 811.58 1.99676C812.756 3.27337 813.417 5.00422 813.419 6.80962V80.9588C813.417 82.7642 812.756 84.4951 811.58 85.7717C810.404 87.0483 808.809 87.7664 807.146 87.7684V87.7684Z" fill="#F2F2F2"/>
<path d="M812.722 14.3759H784.844V20.4288H812.722V14.3759Z" fill="#CCCCCC"/>
<path d="M812.722 61.2866H784.844V67.3396H812.722V61.2866Z" fill="#CCCCCC"/>
<path d="M848.963 87.7684H832.237C830.574 87.7664 828.979 87.0483 827.803 85.7717C826.627 84.4951 825.966 82.7642 825.964 80.9588V6.80962C825.966 5.00422 826.627 3.27337 827.803 1.99676C828.979 0.72015 830.574 0.00203465 832.237 0H848.963C850.626 0.00203465 852.221 0.72015 853.397 1.99676C854.573 3.27337 855.234 5.00422 855.236 6.80962V80.9588C855.234 82.7642 854.573 84.4951 853.397 85.7717C852.221 87.0483 850.626 87.7664 848.963 87.7684V87.7684Z" fill="#F2F2F2"/>
<path d="M854.539 14.3759H826.661V20.4288H854.539V14.3759Z" fill="#CCCCCC"/>
<path d="M854.539 61.2866H826.661V67.3396H854.539V61.2866Z" fill="#CCCCCC"/>
<path d="M911.606 90.0383H514.347C513.977 90.0383 513.622 89.8789 513.361 89.5951C513.1 89.3113 512.953 88.9264 512.953 88.5251C512.953 88.1238 513.1 87.7388 513.361 87.455C513.622 87.1712 513.977 87.0118 514.347 87.0118H911.606C911.976 87.0118 912.33 87.1712 912.592 87.455C912.853 87.7388 913 88.1238 913 88.5251C913 88.9264 912.853 89.3113 912.592 89.5951C912.33 89.8789 911.976 90.0383 911.606 90.0383Z" fill="#CCCCCC"/>
<path d="M911.606 212.611H514.347C513.977 212.611 513.622 212.452 513.361 212.168C513.1 211.884 512.953 211.5 512.953 211.098C512.953 210.697 513.1 210.312 513.361 210.028C513.622 209.744 513.977 209.585 514.347 209.585H911.606C911.976 209.585 912.33 209.744 912.592 210.028C912.853 210.312 913 210.697 913 211.098C913 211.5 912.853 211.884 912.592 212.168C912.33 212.452 911.976 212.611 911.606 212.611Z" fill="#CCCCCC"/>
<path d="M911.606 335.185H514.347C513.977 335.185 513.622 335.025 513.361 334.741C513.1 334.458 512.953 334.073 512.953 333.671C512.953 333.27 513.1 332.885 513.361 332.601C513.622 332.318 513.977 332.158 514.347 332.158H911.606C911.976 332.158 912.33 332.318 912.592 332.601C912.853 332.885 913 333.27 913 333.671C913 334.073 912.853 334.458 912.592 334.741C912.33 335.025 911.976 335.185 911.606 335.185Z" fill="#CCCCCC"/>
<path d="M810.637 318.422C812.359 298.288 817.115 278.597 824.716 260.136C826.834 254.998 829.166 249.974 831.71 245.063C831.838 244.806 831.869 244.505 831.796 244.224C831.724 243.943 831.553 243.704 831.321 243.557C831.089 243.409 830.813 243.366 830.552 243.435C830.291 243.504 830.065 243.681 829.921 243.927C820.667 261.815 814.184 281.233 810.73 301.404C809.77 307.037 809.048 312.71 808.565 318.422C808.442 319.863 810.515 319.854 810.637 318.422V318.422Z" fill="#E6E6E6"/>
<path d="M836.729 248.67C843.976 248.67 849.852 242.292 849.852 234.424C849.852 226.556 843.976 220.178 836.729 220.178C829.481 220.178 823.606 226.556 823.606 234.424C823.606 242.292 829.481 248.67 836.729 248.67Z" fill="#E6E6E6"/>
<path d="M811.979 318.8C813.096 305.738 816.182 292.964 821.113 280.987C822.487 277.655 824 274.395 825.65 271.209C825.733 271.042 825.753 270.847 825.706 270.665C825.659 270.483 825.548 270.327 825.398 270.232C825.247 270.136 825.069 270.108 824.899 270.153C824.73 270.198 824.583 270.312 824.49 270.472C818.486 282.077 814.28 294.674 812.04 307.76C811.417 311.414 810.948 315.095 810.635 318.8C810.555 319.735 811.9 319.729 811.979 318.8V318.8Z" fill="#E6E6E6"/>
<path d="M828.906 273.549C833.608 273.549 837.419 269.411 837.419 264.307C837.419 259.203 833.608 255.065 828.906 255.065C824.204 255.065 820.393 259.203 820.393 264.307C820.393 269.411 824.204 273.549 828.906 273.549Z" fill="#E6E6E6"/>
<path d="M810.282 317.928C803.763 306.883 798.959 294.75 796.061 282.014C795.257 278.469 794.603 274.889 794.099 271.274C794.07 271.087 793.975 270.92 793.835 270.808C793.695 270.696 793.519 270.647 793.347 270.672C793.174 270.697 793.017 270.794 792.908 270.943C792.8 271.092 792.749 271.28 792.767 271.468C794.608 284.627 798.428 297.369 804.076 309.182C805.655 312.48 807.37 315.694 809.223 318.826C809.689 319.616 810.746 318.713 810.282 317.928Z" fill="#E6E6E6"/>
<path d="M792.756 272.9C797.458 272.9 801.269 268.763 801.269 263.658C801.269 258.554 797.458 254.416 792.756 254.416C788.054 254.416 784.243 258.554 784.243 263.658C784.243 268.763 788.054 272.9 792.756 272.9Z" fill="#E6E6E6"/>
<path d="M784.147 326.105V307.946C784.149 306.141 784.81 304.41 785.986 303.133C787.162 301.857 788.757 301.139 790.42 301.136H829.449C831.112 301.139 832.706 301.857 833.882 303.133C835.058 304.41 835.719 306.141 835.721 307.946V326.105C835.719 327.91 835.058 329.641 833.882 330.918C832.706 332.195 831.112 332.913 829.449 332.915H790.42C788.757 332.913 787.162 332.195 785.986 330.918C784.81 329.641 784.149 327.91 784.147 326.105Z" fill="#F2F2F2"/>
<path d="M532.467 550.066H1.39389C1.02421 550.066 0.669688 549.906 0.408282 549.623C0.146876 549.339 0 548.954 0 548.553C0 548.151 0.146876 547.766 0.408282 547.483C0.669688 547.199 1.02421 547.039 1.39389 547.039H532.467C532.837 547.039 533.191 547.199 533.453 547.483C533.714 547.766 533.861 548.151 533.861 548.553C533.861 548.954 533.714 549.339 533.453 549.623C533.191 549.906 532.837 550.066 532.467 550.066Z" fill="#637FB1" fill-opacity="0.67"/>
<path d="M277.467 351.83C298.252 351.83 315.102 333.538 315.102 310.973C315.102 288.407 298.252 270.115 277.467 270.115C256.682 270.115 239.832 288.407 239.832 310.973C239.832 333.538 256.682 351.83 277.467 351.83Z" fill="#2F2E41"/>
<path d="M241.708 573.258L240.711 554.739L306.038 541.748L307.51 569.083L241.708 573.258Z" fill="#FFB8B8"/>
<path d="M244.873 541.2L246.796 576.918L226.081 578.233L222.947 520.025C225.667 519.853 228.392 520.263 230.966 521.234C233.54 522.205 235.913 523.716 237.949 525.683C239.985 527.649 241.645 530.031 242.833 532.694C244.02 535.356 244.714 538.247 244.873 541.2Z" fill="#2F2E41"/>
<path d="M270.121 573.088L259.27 587.42L203.185 548.804L219.199 527.652L270.121 573.088Z" fill="#FFB8B8"/>
<path d="M247.747 594.292L268.674 566.652L284.704 580.956L250.602 626C248.496 624.121 246.753 621.811 245.47 619.201C244.187 616.591 243.39 613.732 243.125 610.788C242.86 607.844 243.132 604.871 243.925 602.041C244.718 599.211 246.017 596.578 247.747 594.292V594.292Z" fill="#637FB1"/>
<path d="M238.895 506.439L231.48 544.389C231.309 545.263 231.318 546.167 231.507 547.037C231.696 547.906 232.061 548.719 232.573 549.418C233.086 550.116 233.735 550.683 234.473 551.077C235.212 551.471 236.021 551.683 236.844 551.698L309.741 552.974C310.563 552.988 311.378 552.805 312.127 552.438C312.875 552.071 313.54 551.528 314.074 550.85C314.607 550.171 314.995 549.372 315.211 548.511C315.427 547.651 315.465 546.749 315.322 545.87L308.946 506.643C308.718 505.242 308.043 503.972 307.039 503.058C306.034 502.143 304.766 501.642 303.455 501.642H244.349C243.071 501.642 241.832 502.118 240.839 502.992C239.846 503.865 239.16 505.082 238.895 506.439V506.439Z" fill="#2F2E41"/>
<path d="M250.983 519.801C250.983 519.801 179.895 471.377 165.956 497.102C158.986 509.965 162.471 522.449 167.698 531.718C172.549 540.157 179.512 546.923 187.774 551.225L245.408 581.844L266.316 557.632L252.377 544.013L250.983 519.801Z" fill="white"/>
<path d="M287.224 512.235C287.224 512.235 379.221 483.483 361.101 537.96C342.98 592.437 274.679 571.251 274.679 571.251L267.71 548.553L291.406 530.394L287.224 512.235Z" fill="white"/>
<path d="M277.939 357.469C296.847 357.469 312.174 340.829 312.174 320.302C312.174 299.776 296.847 283.135 277.939 283.135C259.031 283.135 243.704 299.776 243.704 320.302C243.704 340.829 259.031 357.469 277.939 357.469Z" fill="#FFB8B8"/>
<path d="M279.733 518.24C265.507 518.007 251.354 515.983 237.558 512.208L237.15 512.087L218.046 416.684C216.327 408.301 217.496 399.525 221.331 392.013C225.166 384.501 231.402 378.774 238.861 375.912C261.902 366.938 287.014 366.393 310.367 374.362H310.367C318.203 377.103 324.799 382.951 328.838 390.739C332.878 398.527 334.064 407.682 332.161 416.377L310.822 512.007L310.522 512.162C301.654 516.723 290.565 518.24 279.733 518.24Z" fill="#CCCCCC"/>
<path d="M254.071 525.652C254.765 523.558 255.873 521.656 257.317 520.078C258.762 518.5 260.507 517.285 262.431 516.518C264.355 515.752 266.41 515.453 268.451 515.642C270.493 515.831 272.472 516.504 274.248 517.613L311.864 482.166L315.268 510.022L279.025 539.413C277.111 542.529 274.21 544.775 270.873 545.724C267.536 546.674 263.994 546.261 260.918 544.565C257.842 542.869 255.446 540.007 254.184 536.521C252.922 533.035 252.882 529.167 254.071 525.652V525.652Z" fill="#FFB8B8"/>
<path d="M289.947 533.383C289.335 533.383 288.726 533.286 288.14 533.095C287.188 532.794 286.316 532.25 285.598 531.509C284.88 530.767 284.335 529.85 284.01 528.833L279.47 514.868C279.045 513.577 278.991 512.177 279.315 510.852C279.639 509.528 280.326 508.341 281.285 507.45L332.537 474.046L312.334 376.197L312.848 376.063C313.057 376.007 333.756 370.892 342.239 395.449C348.179 412.647 370.161 450.042 368.61 475.312C368.315 480.367 366.46 485.166 363.344 488.936C360.227 492.705 356.032 495.224 351.434 496.085L293.744 531.969C292.657 532.884 291.322 533.381 289.947 533.383Z" fill="#CCCCCC"/>
<path d="M295.695 522.332C295.001 520.239 293.893 518.336 292.449 516.758C291.004 515.18 289.259 513.965 287.335 513.199C285.412 512.433 283.356 512.133 281.315 512.322C279.273 512.512 277.294 513.184 275.518 514.293L237.902 478.846L234.498 506.703L270.741 536.093C272.655 539.209 275.556 541.455 278.893 542.405C282.23 543.354 285.772 542.942 288.848 541.246C291.924 539.549 294.32 536.687 295.582 533.201C296.844 529.715 296.884 525.848 295.695 522.332V522.332Z" fill="#FFB8B8"/>
<path d="M263.593 533.383C262.219 533.381 260.883 532.884 259.797 531.969L197.924 499.112C193.327 498.25 189.131 495.731 186.015 491.962C182.899 488.193 181.043 483.394 180.749 478.339C179.198 453.069 205.361 412.647 211.301 395.449C219.783 370.892 240.483 376.005 240.693 376.063L241.206 376.198L216.821 477.072L272.255 507.45C273.214 508.341 273.901 509.528 274.225 510.853C274.549 512.177 274.495 513.577 274.07 514.868L269.53 528.833C269.205 529.85 268.661 530.767 267.942 531.509C267.224 532.25 266.352 532.794 265.4 533.095C264.814 533.286 264.205 533.383 263.593 533.383V533.383Z" fill="#CCCCCC"/>
<path d="M337.405 548.553H213.348C210.761 548.549 208.281 547.432 206.452 545.446C204.623 543.461 203.594 540.768 203.591 537.96V463.811C203.594 461.002 204.623 458.31 206.452 456.324C208.281 454.338 210.761 453.221 213.348 453.218H337.405C339.991 453.221 342.471 454.338 344.301 456.324C346.13 458.31 347.159 461.002 347.162 463.811V537.96C347.159 540.768 346.13 543.461 344.301 545.446C342.471 547.432 339.991 548.549 337.405 548.553V548.553Z" fill="#637FB1"/>
<path d="M275.376 509.965C279.995 509.965 283.74 505.9 283.74 500.885C283.74 495.871 279.995 491.806 275.376 491.806C270.757 491.806 267.013 495.871 267.013 500.885C267.013 505.9 270.757 509.965 275.376 509.965Z" fill="white"/>
<path d="M243.361 318.79C241.332 313.202 244.661 306.544 249.599 303.837C254.538 301.131 260.497 301.645 265.78 303.429C270.219 304.928 274.38 307.251 278.711 309.086C282.981 311.141 287.645 312.042 292.305 311.715C296.925 311.148 301.523 308.336 303.413 303.725C305.373 298.945 304.04 293.112 301.023 289.033C297.812 285.089 293.657 282.19 289.019 280.657C278.833 276.762 267.067 276.648 257.611 282.311C248.155 287.974 241.728 300.031 243.683 311.562" fill="#C38570"/>
<path d="M45.528 532.389C47.2501 512.254 52.0064 492.564 59.6071 474.103C61.7254 468.965 64.057 463.941 66.6018 459.03C66.7294 458.773 66.7602 458.472 66.6876 458.191C66.615 457.91 66.4446 457.671 66.2125 457.524C65.9804 457.376 65.7047 457.333 65.4436 457.402C65.1824 457.471 64.9562 457.648 64.8127 457.894C55.5583 475.782 49.0749 495.2 45.6219 515.371C44.6613 521.004 43.9393 526.676 43.456 532.389C43.3332 533.83 45.406 533.821 45.528 532.389V532.389Z" fill="#E6E6E6"/>
<path d="M71.6202 462.637C78.8676 462.637 84.7429 456.259 84.7429 448.391C84.7429 440.523 78.8676 434.145 71.6202 434.145C64.3727 434.145 58.4975 440.523 58.4975 448.391C58.4975 456.259 64.3727 462.637 71.6202 462.637Z" fill="#637FB1"/>
<path d="M46.8703 532.767C47.9875 519.705 51.0732 506.931 56.0041 494.954C57.3783 491.621 58.8909 488.362 60.5419 485.176C60.6246 485.009 60.6446 484.814 60.5975 484.632C60.5503 484.449 60.4398 484.294 60.2893 484.199C60.1387 484.103 59.9599 484.075 59.7905 484.12C59.6211 484.165 59.4743 484.279 59.3812 484.439C53.3774 496.044 49.1714 508.641 46.9312 521.727C46.3081 525.381 45.8397 529.061 45.5262 532.767C45.4465 533.702 46.7912 533.696 46.8704 532.767H46.8703Z" fill="#E6E6E6"/>
<path d="M63.7976 487.516C68.4993 487.516 72.3109 483.378 72.3109 478.274C72.3109 473.169 68.4993 469.031 63.7976 469.031C59.0958 469.031 55.2843 473.169 55.2843 478.274C55.2843 483.378 59.0958 487.516 63.7976 487.516Z" fill="#637FB1"/>
<path d="M45.1738 531.895C38.6543 520.85 33.85 508.717 30.9527 495.981C30.1481 492.436 29.494 488.856 28.9906 485.241C28.9616 485.054 28.8668 484.887 28.7264 484.775C28.586 484.662 28.4108 484.614 28.2379 484.639C28.0651 484.664 27.908 484.761 27.7998 484.91C27.6917 485.058 27.6408 485.247 27.6582 485.435C29.499 498.594 33.3195 511.335 38.9669 523.149C40.5459 526.447 42.2616 529.661 44.1139 532.792C44.5807 533.582 45.6376 532.68 45.1738 531.895V531.895Z" fill="#E6E6E6"/>
<path d="M27.6474 486.867C32.3492 486.867 36.1607 482.729 36.1607 477.625C36.1607 472.521 32.3492 468.383 27.6474 468.383C22.9457 468.383 19.1342 472.521 19.1342 477.625C19.1342 482.729 22.9457 486.867 27.6474 486.867Z" fill="#637FB1"/>
<path d="M19.0386 540.072V521.913C19.0404 520.107 19.7019 518.377 20.8778 517.1C22.0538 515.823 23.6481 515.105 25.3111 515.103H64.3401C66.0031 515.105 67.5974 515.823 68.7734 517.1C69.9493 518.377 70.6107 520.107 70.6126 521.913V540.072C70.6107 541.877 69.9493 543.608 68.7734 544.885C67.5974 546.161 66.0031 546.879 64.3401 546.881H25.3111C23.6481 546.879 22.0538 546.161 20.8778 544.885C19.7019 543.608 19.0404 541.877 19.0386 540.072V540.072Z" fill="#F2F2F2"/>
<path d="M438.252 561.265C438.252 571.218 430.82 575.742 421.653 575.742C412.485 575.742 405.053 571.218 405.053 561.265C405.053 551.312 408.742 539.699 421.653 543.704C434.564 537.697 438.252 551.312 438.252 561.265Z" fill="#FF6584"/>
<path d="M420.844 548.366C420.199 548.368 419.575 548.113 419.09 547.651C418.604 547.189 418.291 546.551 418.208 545.856C417.658 540.89 414.629 531.165 413.352 527.215L413.352 527.213C413.223 526.821 413.183 526.4 413.237 525.987C413.29 525.574 413.435 525.182 413.659 524.843C413.873 524.54 414.144 524.29 414.453 524.109C414.763 523.928 415.104 523.82 415.455 523.793C415.806 523.765 416.158 523.819 416.488 523.949C416.818 524.08 417.119 524.286 417.371 524.552C417.596 524.808 417.77 525.112 417.883 525.444C417.995 525.776 418.043 526.13 418.024 526.483C417.774 531.554 421.178 539.747 423.23 544.18C423.424 544.598 423.521 545.06 423.514 545.528C423.506 545.996 423.394 546.455 423.187 546.865C422.98 547.276 422.684 547.625 422.325 547.884C421.966 548.142 421.554 548.302 421.126 548.35C421.032 548.361 420.938 548.367 420.844 548.366V548.366Z" fill="#3F3D56"/>
<path d="M433.127 537.181C438.889 532.061 434.369 521.583 427.157 523.595C426.186 523.846 425.292 524.364 424.559 525.099C420.135 529.636 419.449 541.244 419.449 541.244C419.449 541.244 427.261 542.393 433.127 537.181Z" fill="#3F3D56"/>
</g>
<defs>
<clipPath id="clip0_23_356">
<rect width="913" height="626" fill="white"/>
</clipPath>
</defs>
</svg>
