<svg width="372" height="46" viewBox="0 0 372 46" fill="none" xmlns="http://www.w3.org/2000/svg">
<path d="M10.3203 25.2422L10.9766 29.7422L11.9375 25.6875L18.6875 1.875H22.4844L29.0703 25.6875L30.0078 29.8125L30.7344 25.2188L36.0312 1.875H40.5547L32.2812 36H28.1797L21.1484 11.1328L20.6094 8.53125L20.0703 11.1328L12.7812 36H8.67969L0.429688 1.875H4.92969L10.3203 25.2422Z" fill="#EEEEEE" fill-opacity="0.01"/>
<path d="M54.6641 36.4688C51.2266 36.4688 48.4297 35.3438 46.2734 33.0938C44.1172 30.8281 43.0391 27.8047 43.0391 24.0234V23.2266C43.0391 20.7109 43.5156 18.4688 44.4688 16.5C45.4375 14.5156 46.7812 12.9688 48.5 11.8594C50.2344 10.7344 52.1094 10.1719 54.125 10.1719C57.4219 10.1719 59.9844 11.2578 61.8125 13.4297C63.6406 15.6016 64.5547 18.7109 64.5547 22.7578V24.5625H47.375C47.4375 27.0625 48.1641 29.0859 49.5547 30.6328C50.9609 32.1641 52.7422 32.9297 54.8984 32.9297C56.4297 32.9297 57.7266 32.6172 58.7891 31.9922C59.8516 31.3672 60.7812 30.5391 61.5781 29.5078L64.2266 31.5703C62.1016 34.8359 58.9141 36.4688 54.6641 36.4688ZM54.125 13.7344C52.375 13.7344 50.9062 14.375 49.7188 15.6562C48.5312 16.9219 47.7969 18.7031 47.5156 21H60.2188V20.6719C60.0938 18.4688 59.5 16.7656 58.4375 15.5625C57.375 14.3438 55.9375 13.7344 54.125 13.7344Z" fill="#EEEEEE" fill-opacity="0.01"/>
<path d="M91.0625 23.6016C91.0625 27.4766 90.1719 30.5938 88.3906 32.9531C86.6094 35.2969 84.2188 36.4688 81.2188 36.4688C78.0156 36.4688 75.5391 35.3359 73.7891 33.0703L73.5781 36H69.5938V0H73.9297V13.4297C75.6797 11.2578 78.0938 10.1719 81.1719 10.1719C84.25 10.1719 86.6641 11.3359 88.4141 13.6641C90.1797 15.9922 91.0625 19.1797 91.0625 23.2266V23.6016ZM86.7266 23.1094C86.7266 20.1562 86.1562 17.875 85.0156 16.2656C83.875 14.6562 82.2344 13.8516 80.0938 13.8516C77.2344 13.8516 75.1797 15.1797 73.9297 17.8359V28.8047C75.2578 31.4609 77.3281 32.7891 80.1406 32.7891C82.2188 32.7891 83.8359 31.9844 84.9922 30.375C86.1484 28.7656 86.7266 26.3438 86.7266 23.1094Z" fill="#EEEEEE" fill-opacity="0.01"/>
<path d="M109.133 36V1.875H118.766C121.734 1.875 124.359 2.53125 126.641 3.84375C128.922 5.15625 130.68 7.02344 131.914 9.44531C133.164 11.8672 133.797 14.6484 133.812 17.7891V19.9688C133.812 23.1875 133.188 26.0078 131.938 28.4297C130.703 30.8516 128.93 32.7109 126.617 34.0078C124.32 35.3047 121.641 35.9688 118.578 36H109.133ZM113.633 5.57812V32.3203H118.367C121.836 32.3203 124.531 31.2422 126.453 29.0859C128.391 26.9297 129.359 23.8594 129.359 19.875V17.8828C129.359 14.0078 128.445 11 126.617 8.85938C124.805 6.70312 122.227 5.60938 118.883 5.57812H113.633Z" fill="#EEEEEE" fill-opacity="0.01"/>
<path d="M150.477 36.4688C147.039 36.4688 144.242 35.3438 142.086 33.0938C139.93 30.8281 138.852 27.8047 138.852 24.0234V23.2266C138.852 20.7109 139.328 18.4688 140.281 16.5C141.25 14.5156 142.594 12.9688 144.312 11.8594C146.047 10.7344 147.922 10.1719 149.938 10.1719C153.234 10.1719 155.797 11.2578 157.625 13.4297C159.453 15.6016 160.367 18.7109 160.367 22.7578V24.5625H143.188C143.25 27.0625 143.977 29.0859 145.367 30.6328C146.773 32.1641 148.555 32.9297 150.711 32.9297C152.242 32.9297 153.539 32.6172 154.602 31.9922C155.664 31.3672 156.594 30.5391 157.391 29.5078L160.039 31.5703C157.914 34.8359 154.727 36.4688 150.477 36.4688ZM149.938 13.7344C148.188 13.7344 146.719 14.375 145.531 15.6562C144.344 16.9219 143.609 18.7031 143.328 21H156.031V20.6719C155.906 18.4688 155.312 16.7656 154.25 15.5625C153.188 14.3438 151.75 13.7344 149.938 13.7344Z" fill="#EEEEEE" fill-opacity="0.01"/>
<path d="M173.445 30.1172L179.727 10.6406H184.156L175.062 36H171.758L162.57 10.6406H167L173.445 30.1172Z" fill="#EEEEEE" fill-opacity="0.01"/>
<path d="M198.523 36.4688C195.086 36.4688 192.289 35.3438 190.133 33.0938C187.977 30.8281 186.898 27.8047 186.898 24.0234V23.2266C186.898 20.7109 187.375 18.4688 188.328 16.5C189.297 14.5156 190.641 12.9688 192.359 11.8594C194.094 10.7344 195.969 10.1719 197.984 10.1719C201.281 10.1719 203.844 11.2578 205.672 13.4297C207.5 15.6016 208.414 18.7109 208.414 22.7578V24.5625H191.234C191.297 27.0625 192.023 29.0859 193.414 30.6328C194.82 32.1641 196.602 32.9297 198.758 32.9297C200.289 32.9297 201.586 32.6172 202.648 31.9922C203.711 31.3672 204.641 30.5391 205.438 29.5078L208.086 31.5703C205.961 34.8359 202.773 36.4688 198.523 36.4688ZM197.984 13.7344C196.234 13.7344 194.766 14.375 193.578 15.6562C192.391 16.9219 191.656 18.7031 191.375 21H204.078V20.6719C203.953 18.4688 203.359 16.7656 202.297 15.5625C201.234 14.3438 199.797 13.7344 197.984 13.7344Z" fill="#EEEEEE" fill-opacity="0.01"/>
<path d="M218.164 36H213.828V0H218.164V36Z" fill="#EEEEEE" fill-opacity="0.01"/>
<path d="M223.977 23.0859C223.977 20.6016 224.461 18.3672 225.43 16.3828C226.414 14.3984 227.773 12.8672 229.508 11.7891C231.258 10.7109 233.25 10.1719 235.484 10.1719C238.938 10.1719 241.727 11.3672 243.852 13.7578C245.992 16.1484 247.062 19.3281 247.062 23.2969V23.6016C247.062 26.0703 246.586 28.2891 245.633 30.2578C244.695 32.2109 243.344 33.7344 241.578 34.8281C239.828 35.9219 237.812 36.4688 235.531 36.4688C232.094 36.4688 229.305 35.2734 227.164 32.8828C225.039 30.4922 223.977 27.3281 223.977 23.3906V23.0859ZM228.336 23.6016C228.336 26.4141 228.984 28.6719 230.281 30.375C231.594 32.0781 233.344 32.9297 235.531 32.9297C237.734 32.9297 239.484 32.0703 240.781 30.3516C242.078 28.6172 242.727 26.1953 242.727 23.0859C242.727 20.3047 242.062 18.0547 240.734 16.3359C239.422 14.6016 237.672 13.7344 235.484 13.7344C233.344 13.7344 231.617 14.5859 230.305 16.2891C228.992 17.9922 228.336 20.4297 228.336 23.6016Z" fill="#EEEEEE" fill-opacity="0.01"/>
<path d="M273.922 23.6016C273.922 27.4609 273.039 30.5703 271.273 32.9297C269.508 35.2891 267.117 36.4688 264.102 36.4688C261.023 36.4688 258.602 35.4922 256.836 33.5391V45.75H252.5V10.6406H256.461L256.672 13.4531C258.438 11.2656 260.891 10.1719 264.031 10.1719C267.078 10.1719 269.484 11.3203 271.25 13.6172C273.031 15.9141 273.922 19.1094 273.922 23.2031V23.6016ZM269.586 23.1094C269.586 20.25 268.977 17.9922 267.758 16.3359C266.539 14.6797 264.867 13.8516 262.742 13.8516C260.117 13.8516 258.148 15.0156 256.836 17.3438V29.4609C258.133 31.7734 260.117 32.9297 262.789 32.9297C264.867 32.9297 266.516 32.1094 267.734 30.4688C268.969 28.8125 269.586 26.3594 269.586 23.1094Z" fill="#EEEEEE" fill-opacity="0.01"/>
<path d="M289.977 36.4688C286.539 36.4688 283.742 35.3438 281.586 33.0938C279.43 30.8281 278.352 27.8047 278.352 24.0234V23.2266C278.352 20.7109 278.828 18.4688 279.781 16.5C280.75 14.5156 282.094 12.9688 283.812 11.8594C285.547 10.7344 287.422 10.1719 289.438 10.1719C292.734 10.1719 295.297 11.2578 297.125 13.4297C298.953 15.6016 299.867 18.7109 299.867 22.7578V24.5625H282.688C282.75 27.0625 283.477 29.0859 284.867 30.6328C286.273 32.1641 288.055 32.9297 290.211 32.9297C291.742 32.9297 293.039 32.6172 294.102 31.9922C295.164 31.3672 296.094 30.5391 296.891 29.5078L299.539 31.5703C297.414 34.8359 294.227 36.4688 289.977 36.4688ZM289.438 13.7344C287.688 13.7344 286.219 14.375 285.031 15.6562C283.844 16.9219 283.109 18.7031 282.828 21H295.531V20.6719C295.406 18.4688 294.812 16.7656 293.75 15.5625C292.688 14.3438 291.25 13.7344 289.438 13.7344Z" fill="#EEEEEE" fill-opacity="0.01"/>
<path d="M317.164 14.5312C316.508 14.4219 315.797 14.3672 315.031 14.3672C312.188 14.3672 310.258 15.5781 309.242 18V36H304.906V10.6406H309.125L309.195 13.5703C310.617 11.3047 312.633 10.1719 315.242 10.1719C316.086 10.1719 316.727 10.2812 317.164 10.5V14.5312Z" fill="#EEEEEE" fill-opacity="0.01"/>
<path d="M348.055 1.875H352.578V26.0391C352.578 29.3047 351.594 31.8594 349.625 33.7031C347.672 35.5469 345.062 36.4688 341.797 36.4688C338.406 36.4688 335.766 35.6016 333.875 33.8672C331.984 32.1328 331.039 29.7031 331.039 26.5781H335.539C335.539 28.5312 336.07 30.0547 337.133 31.1484C338.211 32.2422 339.766 32.7891 341.797 32.7891C343.656 32.7891 345.156 32.2031 346.297 31.0312C347.453 29.8594 348.039 28.2188 348.055 26.1094V1.875Z" fill="#EEEEEE" fill-opacity="0.01"/>
<path d="M371.82 14.5312C371.164 14.4219 370.453 14.3672 369.688 14.3672C366.844 14.3672 364.914 15.5781 363.898 18V36H359.562V10.6406H363.781L363.852 13.5703C365.273 11.3047 367.289 10.1719 369.898 10.1719C370.742 10.1719 371.383 10.2812 371.82 10.5V14.5312Z" fill="#EEEEEE" fill-opacity="0.01"/>
</svg>
